<svg width="24" height="26" viewBox="0 0 24 26" fill="none" xmlns="http://www.w3.org/2000/svg">
<g filter="url(#filter0_d_322_6305)">
<mask id="path-1-outside-1_322_6305" maskUnits="userSpaceOnUse" x="4.14648" y="3" width="16" height="19" fill="black">
<rect fill="white" x="4.14648" y="3" width="16" height="19"/>
<path fill-rule="evenodd" clip-rule="evenodd" d="M8.98203 14L8.09542 12.6453C7.49003 11.7203 6.20052 11.3829 5.21416 11.89L5.44399 11.7718C5.1992 11.8977 5.08183 12.2114 5.18261 12.4721L6.40988 15.6474C6.60444 16.1508 7.10134 16.8627 7.5131 17.2203C7.5131 17.2203 9.98203 19.2639 9.98203 20.03V21H13.982L14.982 19L15.982 21H16.982V20.03C16.982 19.2639 18.4909 16.8507 18.4909 16.8507C18.7686 16.3816 19.0001 15.5552 19.0001 15.0066V10.9718C18.982 10.0785 18.2227 9.35454 17.2857 9.35454C16.817 9.35454 16.4373 9.71652 16.4373 10.1634V10.4866C16.4373 9.59327 15.678 8.86931 14.7411 8.86931C14.2723 8.86931 13.8927 9.23129 13.8927 9.67819V10.0013C13.8927 9.10804 13.1333 8.38408 12.1964 8.38408C11.7276 8.38408 11.348 8.74606 11.348 9.19296V9.51612C11.348 9.37256 11.3326 9.25843 11.303 9.16799L11.0442 5.00121C11.0092 4.43776 10.5343 4 9.98203 4C9.4259 4 8.98203 4.44763 8.98203 4.99981V9V14ZM16.0001 13H17.0001V17H16.0001V13ZM14.0001 13H15.0001V17H14.0001V13ZM12.0001 13H13.0001V17H12.0001V13Z"/>
</mask>
<path fill-rule="evenodd" clip-rule="evenodd" d="M8.98203 14L8.09542 12.6453C7.49003 11.7203 6.20052 11.3829 5.21416 11.89L5.44399 11.7718C5.1992 11.8977 5.08183 12.2114 5.18261 12.4721L6.40988 15.6474C6.60444 16.1508 7.10134 16.8627 7.5131 17.2203C7.5131 17.2203 9.98203 19.2639 9.98203 20.03V21H13.982L14.982 19L15.982 21H16.982V20.03C16.982 19.2639 18.4909 16.8507 18.4909 16.8507C18.7686 16.3816 19.0001 15.5552 19.0001 15.0066V10.9718C18.982 10.0785 18.2227 9.35454 17.2857 9.35454C16.817 9.35454 16.4373 9.71652 16.4373 10.1634V10.4866C16.4373 9.59327 15.678 8.86931 14.7411 8.86931C14.2723 8.86931 13.8927 9.23129 13.8927 9.67819V10.0013C13.8927 9.10804 13.1333 8.38408 12.1964 8.38408C11.7276 8.38408 11.348 8.74606 11.348 9.19296V9.51612C11.348 9.37256 11.3326 9.25843 11.303 9.16799L11.0442 5.00121C11.0092 4.43776 10.5343 4 9.98203 4C9.4259 4 8.98203 4.44763 8.98203 4.99981V9V14ZM16.0001 13H17.0001V17H16.0001V13ZM14.0001 13H15.0001V17H14.0001V13ZM12.0001 13H13.0001V17H12.0001V13Z" fill="white"/>
<path d="M8.98203 14L8.14531 14.5476L9.98203 17.354V14H8.98203ZM8.09542 12.6453L8.93215 12.0977L8.09542 12.6453ZM5.18261 12.4721L4.24986 12.8327L5.18261 12.4721ZM6.40988 15.6474L7.34264 15.2869L6.40988 15.6474ZM7.5131 17.2203L6.85736 17.9753L6.86633 17.9831L6.87548 17.9907L7.5131 17.2203ZM9.98203 21H8.98203V22H9.98203V21ZM13.982 21V22H14.6001L14.8765 21.4472L13.982 21ZM14.982 19L15.8765 18.5528L14.982 16.7639L14.0876 18.5528L14.982 19ZM15.982 21L15.0876 21.4472L15.364 22H15.982V21ZM16.982 21V22H17.982V21H16.982ZM18.4909 16.8507L19.3388 17.3808L19.3452 17.3706L19.3513 17.3602L18.4909 16.8507ZM19.0001 10.9718H20.0001V10.9617L19.9999 10.9516L19.0001 10.9718ZM11.303 9.16799L10.3049 9.22998L10.3129 9.35779L10.3527 9.47948L11.303 9.16799ZM11.0442 5.00121L10.0461 5.0632V5.0632L11.0442 5.00121ZM8.98203 4.99981H7.98203H8.98203ZM17.0001 13H18.0001V12H17.0001V13ZM17.0001 17V18H18.0001V17H17.0001ZM16.0001 17H15.0001V18H16.0001V17ZM15.0001 13H16.0001V12H15.0001V13ZM15.0001 17V18H16.0001V17H15.0001ZM14.0001 17H13.0001V18H14.0001V17ZM13.0001 13H14.0001V12H13.0001V13ZM13.0001 17V18H14.0001V17H13.0001ZM12.0001 17H11.0001V18H12.0001V17ZM9.81876 13.4524L8.93215 12.0977L7.2587 13.193L8.14531 14.5476L9.81876 13.4524ZM8.93215 12.0977C8.04455 10.7415 6.19541 10.2611 4.75694 11.0006L5.67138 12.7793C6.20564 12.5047 6.93552 12.6992 7.2587 13.193L8.93215 12.0977ZM5.67137 12.7793L5.9012 12.6612L4.98677 10.8825L4.75694 11.0006L5.67137 12.7793ZM4.98677 10.8825C4.27755 11.2471 3.96869 12.1052 4.24986 12.8327L6.11536 12.1116C6.16094 12.2295 6.15101 12.3396 6.1205 12.4213C6.09009 12.5027 6.02296 12.5986 5.90121 12.6612L4.98677 10.8825ZM4.24986 12.8327L5.47713 16.0079L7.34264 15.2869L6.11536 12.1116L4.24986 12.8327ZM5.47713 16.0079C5.72984 16.6618 6.32115 17.5096 6.85736 17.9753L8.16883 16.4653C7.88153 16.2158 7.47904 15.6398 7.34264 15.2869L5.47713 16.0079ZM7.5131 17.2203C6.87548 17.9907 6.87542 17.9906 6.87537 17.9906C6.87536 17.9906 6.87532 17.9905 6.87531 17.9905C6.87529 17.9905 6.87531 17.9905 6.87537 17.9906C6.87548 17.9907 6.87574 17.9909 6.87614 17.9912C6.87695 17.9919 6.87833 17.993 6.88028 17.9947C6.88417 17.9979 6.8903 18.003 6.89851 18.0099C6.91494 18.0237 6.9397 18.0445 6.97159 18.0716C7.03543 18.1259 7.12756 18.205 7.23849 18.3025C7.46136 18.4985 7.75537 18.7648 8.0466 19.051C8.34224 19.3416 8.61415 19.6324 8.80519 19.8795C8.90121 20.0037 8.95951 20.0948 8.98964 20.1524C9.03018 20.23 8.98203 20.1741 8.98203 20.03H10.982C10.982 19.6944 10.8567 19.407 10.7623 19.2262C10.6574 19.0255 10.5228 18.8312 10.3873 18.6561C10.1155 18.3045 9.77012 17.9407 9.44853 17.6247C9.12253 17.3042 8.7993 17.0118 8.55925 16.8007C8.43872 16.6947 8.33796 16.6081 8.26677 16.5476C8.23115 16.5174 8.20287 16.4935 8.18314 16.477C8.17327 16.4687 8.16553 16.4623 8.16008 16.4577C8.15735 16.4555 8.1552 16.4537 8.15363 16.4524C8.15285 16.4517 8.15221 16.4512 8.15172 16.4508C8.15148 16.4506 8.15127 16.4504 8.15111 16.4503C8.15102 16.4502 8.15092 16.4501 8.15088 16.4501C8.15079 16.45 8.15072 16.45 7.5131 17.2203ZM8.98203 20.03V21H10.982V20.03H8.98203ZM9.98203 22H13.982V20H9.98203V22ZM14.8765 21.4472L15.8765 19.4472L14.0876 18.5528L13.0876 20.5528L14.8765 21.4472ZM14.0876 19.4472L15.0876 21.4472L16.8765 20.5528L15.8765 18.5528L14.0876 19.4472ZM15.982 22H16.982V20H15.982V22ZM17.982 21V20.03H15.982V21H17.982ZM17.982 20.03C17.982 20.0658 17.993 19.9439 18.1386 19.6C18.2626 19.3073 18.4347 18.9649 18.6165 18.6279C18.7966 18.2941 18.978 17.9809 19.1149 17.7503C19.1832 17.6354 19.2399 17.5418 19.2792 17.4775C19.2989 17.4453 19.3141 17.4206 19.3243 17.4041C19.3294 17.3959 19.3332 17.3897 19.3357 17.3858C19.3369 17.3839 19.3378 17.3825 19.3383 17.3816C19.3385 17.3812 19.3387 17.3809 19.3388 17.3808C19.3388 17.3807 19.3389 17.3807 19.3389 17.3807C19.3389 17.3807 19.3388 17.3807 19.3388 17.3807C19.3388 17.3808 19.3388 17.3808 18.4909 16.8507C17.643 16.3205 17.6429 16.3206 17.6429 16.3207C17.6429 16.3207 17.6428 16.3208 17.6428 16.3209C17.6427 16.321 17.6425 16.3212 17.6424 16.3214C17.6421 16.3219 17.6417 16.3225 17.6413 16.3232C17.6404 16.3247 17.6391 16.3268 17.6374 16.3294C17.6342 16.3347 17.6295 16.3422 17.6235 16.3518C17.6116 16.3711 17.5945 16.3989 17.5729 16.4342C17.5297 16.5049 17.4685 16.6059 17.3953 16.7291C17.2493 16.9749 17.0535 17.3129 16.8564 17.6782C16.661 18.0402 16.4559 18.4448 16.297 18.82C16.1597 19.1441 15.982 19.6111 15.982 20.03H17.982ZM19.3513 17.3602C19.5491 17.0261 19.7058 16.6131 19.8133 16.2258C19.9206 15.839 20.0001 15.4009 20.0001 15.0066H18.0001C18.0001 15.161 17.9639 15.4103 17.886 15.6912C17.8083 15.9714 17.7104 16.2061 17.6304 16.3412L19.3513 17.3602ZM20.0001 15.0066V10.9718H18.0001V15.0066H20.0001ZM19.9999 10.9516C19.9702 9.48181 18.7344 8.35454 17.2857 8.35454V10.3545C17.711 10.3545 17.9939 10.6752 18.0003 10.992L19.9999 10.9516ZM17.2857 8.35454C16.3102 8.35454 15.4373 9.11981 15.4373 10.1634H17.4373C17.4373 10.2317 17.4066 10.2858 17.3758 10.3152C17.3458 10.3437 17.3118 10.3545 17.2857 10.3545V8.35454ZM15.4373 10.1634V10.4866H17.4373V10.1634H15.4373ZM17.4373 10.4866C17.4373 8.99657 16.1848 7.86931 14.7411 7.86931V9.86931C15.1712 9.86931 15.4373 10.19 15.4373 10.4866H17.4373ZM14.7411 7.86931C13.7655 7.86931 12.8927 8.63458 12.8927 9.67819H14.8927C14.8927 9.74648 14.862 9.80054 14.8311 9.82993C14.8012 9.8585 14.7671 9.86931 14.7411 9.86931V7.86931ZM12.8927 9.67819V10.0013H14.8927V9.67819H12.8927ZM14.8927 10.0013C14.8927 8.51134 13.6401 7.38408 12.1964 7.38408V9.38408C12.6265 9.38408 12.8927 9.70475 12.8927 10.0013H14.8927ZM12.1964 7.38408C11.2209 7.38408 10.348 8.14936 10.348 9.19296H12.348C12.348 9.26126 12.3173 9.31532 12.2865 9.3447C12.2565 9.37328 12.2224 9.38408 12.1964 9.38408V7.38408ZM10.348 9.19296V9.51612H12.348V9.19296H10.348ZM12.348 9.51612C12.348 9.3088 12.3268 9.08088 12.2532 8.85651L10.3527 9.47948C10.3449 9.45553 10.3441 9.44436 10.345 9.45156C10.346 9.45874 10.348 9.4791 10.348 9.51612H12.348ZM12.3011 9.10601L12.0423 4.93923L10.0461 5.0632L10.3049 9.22998L12.3011 9.10601ZM12.0423 4.93923C11.9743 3.84504 11.059 3 9.98203 3V5C9.99084 5 10.0067 5.00346 10.0237 5.01933C10.0398 5.03438 10.0453 5.04976 10.0461 5.0632L12.0423 4.93923ZM9.98203 3C8.87129 3 7.98203 3.89768 7.98203 4.99981H9.98203V5V3ZM7.98203 4.99981V9H9.98203V4.99981H7.98203ZM7.98203 9V14H9.98203V9H7.98203ZM16.0001 14H17.0001V12H16.0001V14ZM16.0001 13V17H18.0001V13H16.0001ZM17.0001 16H16.0001V18H17.0001V16ZM17.0001 17V13H15.0001V17H17.0001ZM14.0001 14H15.0001V12H14.0001V14ZM14.0001 13V17H16.0001V13H14.0001ZM15.0001 16H14.0001V18H15.0001V16ZM15.0001 17V13H13.0001V17H15.0001ZM12.0001 14H13.0001V12H12.0001V14ZM12.0001 13V17H14.0001V13H12.0001ZM13.0001 16H12.0001V18H13.0001V16ZM13.0001 17V13H11.0001V17H13.0001Z" fill="black" fill-opacity="0.8" mask="url(#path-1-outside-1_322_6305)"/>
</g>
<defs>
<filter id="filter0_d_322_6305" x="1.14648" y="1" width="21.8535" height="25" filterUnits="userSpaceOnUse" color-interpolation-filters="sRGB">
<feFlood flood-opacity="0" result="BackgroundImageFix"/>
<feColorMatrix in="SourceAlpha" type="matrix" values="0 0 0 0 0 0 0 0 0 0 0 0 0 0 0 0 0 0 127 0" result="hardAlpha"/>
<feOffset dy="1"/>
<feGaussianBlur stdDeviation="1.5"/>
<feColorMatrix type="matrix" values="0 0 0 0 0 0 0 0 0 0 0 0 0 0 0 0 0 0 0.2 0"/>
<feBlend mode="normal" in2="BackgroundImageFix" result="effect1_dropShadow_322_6305"/>
<feBlend mode="normal" in="SourceGraphic" in2="effect1_dropShadow_322_6305" result="shape"/>
</filter>
</defs>
</svg>
