<svg width="48" height="48" viewBox="0 0 48 48" fill="none" xmlns="http://www.w3.org/2000/svg">
<path fill-rule="evenodd" clip-rule="evenodd" d="M10.3263 14.6661C7.93737 14.6666 6.00043 12.7269 6 10.3338C5.99957 7.94076 7.93581 6.00043 10.3247 6C12.7136 5.99957 14.6506 7.9392 14.651 10.3323C14.6512 11.4815 14.1957 12.5837 13.3846 13.3965C12.5736 14.2092 11.4735 14.6659 10.3263 14.6661ZM41.9969 42H34.5432V30.3067C34.5432 27.5183 34.4935 23.9288 30.6664 23.9288C26.7843 23.9288 26.1903 26.9669 26.1903 30.1037V41.9992H18.7366V17.9531H25.8922V21.2392H25.9923C27.4514 18.7402 30.1643 17.2476 33.0524 17.355C40.6071 17.355 42 22.3328 42 28.8087L41.9969 42ZM6.59164 42H14.0531V17.9531H6.59164V42Z" fill="#A92BA7"/>
</svg>
