<svg width="177" height="40" viewBox="0 0 177 40" fill="none" xmlns="http://www.w3.org/2000/svg">
<path d="M22.4219 31H7.76562C7.39062 31 6.98438 30.9583 6.54688 30.875C6.11979 30.7812 5.69271 30.6406 5.26562 30.4531C4.84896 30.2656 4.44792 30.026 4.0625 29.7344C3.67708 29.4323 3.33333 29.0729 3.03125 28.6562C2.73958 28.2292 2.50521 27.7396 2.32812 27.1875C2.15104 26.625 2.0625 25.9948 2.0625 25.2969V14.2969C2.0625 13.9219 2.10417 13.5208 2.1875 13.0938C2.28125 12.6562 2.42188 12.2292 2.60938 11.8125C2.79688 11.3854 3.04167 10.9792 3.34375 10.5938C3.64583 10.2083 4.00521 9.86979 4.42188 9.57812C4.84896 9.27604 5.33854 9.03646 5.89062 8.85938C6.44271 8.68229 7.06771 8.59375 7.76562 8.59375H22.4219V12.6562H7.76562C7.23438 12.6562 6.82812 12.7969 6.54688 13.0781C6.26562 13.3594 6.125 13.776 6.125 14.3281V25.2969C6.125 25.8177 6.26562 26.224 6.54688 26.5156C6.83854 26.7969 7.24479 26.9375 7.76562 26.9375H22.4219V31ZM47.6094 16.0938C47.6094 17.0208 47.4896 17.849 47.25 18.5781C47.0208 19.3073 46.7135 19.9531 46.3281 20.5156C45.9427 21.0677 45.4896 21.5417 44.9688 21.9375C44.4583 22.3333 43.9271 22.6615 43.375 22.9219C42.8229 23.1719 42.2604 23.3542 41.6875 23.4688C41.125 23.5833 40.5938 23.6406 40.0938 23.6406H38.4531V31H34.3594V23.6406H32.7344C32.2344 23.6406 31.6979 23.5833 31.125 23.4688C30.5625 23.3542 30 23.1719 29.4375 22.9219C28.8854 22.6615 28.3542 22.3333 27.8438 21.9375C27.3333 21.5417 26.8802 21.0677 26.4844 20.5156C26.099 19.9531 25.7865 19.3073 25.5469 18.5781C25.3177 17.8385 25.2031 17.0104 25.2031 16.0938V8.59375H29.2656V16.0938C29.2656 16.625 29.349 17.1042 29.5156 17.5312C29.6823 17.9479 29.9167 18.3073 30.2188 18.6094C30.5208 18.9115 30.8854 19.1458 31.3125 19.3125C31.75 19.4688 32.2344 19.5469 32.7656 19.5469H40.0938C40.4792 19.4844 40.875 19.4062 41.2812 19.3125C41.6875 19.2083 42.0573 19.0365 42.3906 18.7969C42.724 18.5573 43 18.224 43.2188 17.7969C43.4375 17.3698 43.5469 16.8021 43.5469 16.0938V8.59375H47.6094V16.0938ZM71.3281 31H56.6719C56.2969 31 55.8906 30.9583 55.4531 30.875C55.026 30.7812 54.599 30.6406 54.1719 30.4531C53.7552 30.2656 53.3542 30.026 52.9688 29.7344C52.5833 29.4323 52.2396 29.0729 51.9375 28.6562C51.6458 28.2292 51.4115 27.7396 51.2344 27.1875C51.0573 26.625 50.9688 25.9948 50.9688 25.2969V14.2969C50.9688 13.9219 51.0104 13.5208 51.0938 13.0938C51.1875 12.6562 51.3281 12.2292 51.5156 11.8125C51.7031 11.3854 51.9479 10.9792 52.25 10.5938C52.5521 10.2083 52.9115 9.86979 53.3281 9.57812C53.7552 9.27604 54.2448 9.03646 54.7969 8.85938C55.349 8.68229 55.974 8.59375 56.6719 8.59375H71.3281V12.6562H56.6719C56.1406 12.6562 55.7344 12.7969 55.4531 13.0781C55.1719 13.3594 55.0312 13.776 55.0312 14.3281V25.2969C55.0312 25.8177 55.1719 26.224 55.4531 26.5156C55.7448 26.7969 56.151 26.9375 56.6719 26.9375H71.3281V31ZM95.75 31H77.2188C76.9271 31 76.6562 30.9479 76.4062 30.8438C76.1562 30.7396 75.9375 30.599 75.75 30.4219C75.5729 30.2344 75.4323 30.0156 75.3281 29.7656C75.224 29.5156 75.1719 29.2448 75.1719 28.9531V8.59375H79.2344V26.9375H95.75V31ZM121.906 21.9375C121.906 23.3021 121.672 24.5573 121.203 25.7031C120.734 26.849 120.083 27.8385 119.25 28.6719C118.417 29.5052 117.427 30.1562 116.281 30.625C115.146 31.0833 113.906 31.3125 112.562 31.3125H107.062C105.719 31.3125 104.474 31.0833 103.328 30.625C102.182 30.1562 101.193 29.5052 100.359 28.6719C99.526 27.8385 98.8698 26.849 98.3906 25.7031C97.9219 24.5573 97.6875 23.3021 97.6875 21.9375V17.6562C97.6875 16.3021 97.9219 15.0521 98.3906 13.9062C98.8698 12.75 99.526 11.7604 100.359 10.9375C101.193 10.1042 102.182 9.45312 103.328 8.98438C104.474 8.51562 105.719 8.28125 107.062 8.28125H112.562C113.906 8.28125 115.146 8.51562 116.281 8.98438C117.427 9.45312 118.417 10.1042 119.25 10.9375C120.083 11.7604 120.734 12.75 121.203 13.9062C121.672 15.0521 121.906 16.3021 121.906 17.6562V21.9375ZM117.844 17.6562C117.844 16.8542 117.714 16.1302 117.453 15.4844C117.203 14.8281 116.844 14.2708 116.375 13.8125C115.917 13.3438 115.359 12.9844 114.703 12.7344C114.057 12.474 113.344 12.3438 112.562 12.3438H107.062C106.271 12.3438 105.547 12.474 104.891 12.7344C104.245 12.9844 103.688 13.3438 103.219 13.8125C102.75 14.2708 102.385 14.8281 102.125 15.4844C101.875 16.1302 101.75 16.8542 101.75 17.6562V21.9375C101.75 22.7396 101.875 23.4688 102.125 24.125C102.385 24.7708 102.75 25.3281 103.219 25.7969C103.688 26.2552 104.245 26.6146 104.891 26.875C105.547 27.125 106.271 27.25 107.062 27.25H112.531C113.323 27.25 114.042 27.125 114.688 26.875C115.344 26.6146 115.906 26.2552 116.375 25.7969C116.844 25.3281 117.203 24.7708 117.453 24.125C117.714 23.4688 117.844 22.7396 117.844 21.9375V17.6562ZM148.312 29.2656C148.312 29.5573 148.255 29.8281 148.141 30.0781C148.036 30.3281 147.891 30.5469 147.703 30.7344C147.526 30.9115 147.312 31.0521 147.062 31.1562C146.812 31.2604 146.547 31.3125 146.266 31.3125C146.016 31.3125 145.76 31.2656 145.5 31.1719C145.25 31.0781 145.026 30.9271 144.828 30.7188L129.984 15.2188V31H125.922V10.3281C125.922 9.91146 126.036 9.53646 126.266 9.20312C126.505 8.85938 126.807 8.60417 127.172 8.4375C127.557 8.28125 127.953 8.24479 128.359 8.32812C128.766 8.40104 129.115 8.58854 129.406 8.89062L144.25 24.375V8.59375H148.312V29.2656ZM171.469 21.8438H158.641V17.75H171.469V21.8438ZM173.297 31H158.641C158.078 31 157.464 30.901 156.797 30.7031C156.13 30.5052 155.51 30.1823 154.938 29.7344C154.375 29.276 153.901 28.6875 153.516 27.9688C153.141 27.2396 152.953 26.349 152.953 25.2969V10.6406C152.953 10.3594 153.005 10.0938 153.109 9.84375C153.214 9.59375 153.354 9.375 153.531 9.1875C153.719 9 153.938 8.85417 154.188 8.75C154.438 8.64583 154.708 8.59375 155 8.59375H173.297V12.6562H157.016V25.2969C157.016 25.8281 157.156 26.2344 157.438 26.5156C157.719 26.7969 158.13 26.9375 158.672 26.9375H173.297V31Z" fill="#85F0EE"/>
<rect x="108" y="4" width="3.80645" height="14" rx="1.90323" fill="#A92BA7"/>
</svg>
