<svg width="230" height="18" viewBox="0 0 230 18" fill="none" xmlns="http://www.w3.org/2000/svg">
<path d="M0.902344 6.04688L3.11719 5.44922V9.59766H7.99219V5.68359H10.207V15H7.99219V11.5781H3.11719V15H0.902344V6.04688ZM14.2266 11.3438V13.0195H21.0234L20.4258 15H12.0117V5.68359H21.0234L20.4258 7.66406H14.2266V9.36328H20.0039V11.3438H14.2266ZM22.3594 5.68359H24.5742V13.0195H31.125L30.5273 15C30.5273 15 27.8047 15 22.3594 15C22.3594 15 22.3594 11.8945 22.3594 5.68359ZM32.0859 5.68359H34.3008V13.0195H40.8516L40.2539 15C40.2539 15 37.5312 15 32.0859 15C32.0859 15 32.0859 11.8945 32.0859 5.68359ZM43.4648 10.3477C43.4648 11.6836 43.9531 12.5391 44.9297 12.9141C45.3906 13.0938 45.9766 13.1836 46.6875 13.1836C48.3516 13.1836 49.3555 12.6133 49.6992 11.4727C49.793 11.1367 49.8398 10.7617 49.8398 10.3477C49.8398 8.82422 49.1836 7.91406 47.8711 7.61719C47.5195 7.53906 47.125 7.5 46.6875 7.5C45.1797 7.5 44.207 7.92969 43.7695 8.78906C43.5664 9.20312 43.4648 9.72266 43.4648 10.3477ZM52.1836 10.3477C52.1836 12.1758 51.4766 13.5117 50.0625 14.3555C49.1172 14.918 47.9531 15.1992 46.5703 15.1992C44.875 15.1992 43.5312 14.7461 42.5391 13.8398C41.5938 12.9727 41.1211 11.8086 41.1211 10.3477C41.1211 8.62109 41.7617 7.32031 43.043 6.44531C43.9961 5.80469 45.1719 5.48438 46.5703 5.48438C48.4141 5.48438 49.8398 5.96484 50.8477 6.92578C51.7383 7.77734 52.1836 8.91797 52.1836 10.3477ZM74.6191 5.68359H80.5957L79.998 7.66406H74.8887C74.2168 7.66406 73.7051 8.03906 73.3535 8.78906C73.1348 9.27344 73.0254 9.8125 73.0254 10.4062C73.0254 11.3281 73.2598 12.0352 73.7285 12.5273C74.0488 12.8555 74.4355 13.0195 74.8887 13.0195H80.5957L79.998 15H74.6191C73.3457 15 72.3418 14.4688 71.6074 13.4062C70.9902 12.5234 70.6816 11.4766 70.6816 10.2656C70.6816 8.98438 71.0215 7.91406 71.7012 7.05469C72.4277 6.14844 73.4004 5.69141 74.6191 5.68359ZM87.1699 11.8359V15H84.9551V11.7891L80.4434 5.68359H83.0215L86.0801 10.0547L89.1387 5.68359H91.7168L87.1699 11.8359ZM95.4668 5.68359H101.443L100.846 7.66406H95.7363C95.0645 7.66406 94.5527 8.03906 94.2012 8.78906C93.9824 9.27344 93.873 9.8125 93.873 10.4062C93.873 11.3281 94.1074 12.0352 94.5762 12.5273C94.8965 12.8555 95.2832 13.0195 95.7363 13.0195H101.443L100.846 15H95.4668C94.1934 15 93.1895 14.4688 92.4551 13.4062C91.8379 12.5234 91.5293 11.4766 91.5293 10.2656C91.5293 8.98438 91.8691 7.91406 92.5488 7.05469C93.2754 6.14844 94.248 5.69141 95.4668 5.68359ZM102.416 5.68359H104.631V13.0195H111.182L110.584 15C110.584 15 107.861 15 102.416 15C102.416 15 102.416 11.8945 102.416 5.68359ZM113.795 10.3477C113.795 11.6836 114.283 12.5391 115.26 12.9141C115.721 13.0938 116.307 13.1836 117.018 13.1836C118.682 13.1836 119.686 12.6133 120.029 11.4727C120.123 11.1367 120.17 10.7617 120.17 10.3477C120.17 8.82422 119.514 7.91406 118.201 7.61719C117.85 7.53906 117.455 7.5 117.018 7.5C115.51 7.5 114.537 7.92969 114.1 8.78906C113.896 9.20312 113.795 9.72266 113.795 10.3477ZM122.514 10.3477C122.514 12.1758 121.807 13.5117 120.393 14.3555C119.447 14.918 118.283 15.1992 116.9 15.1992C115.205 15.1992 113.861 14.7461 112.869 13.8398C111.924 12.9727 111.451 11.8086 111.451 10.3477C111.451 8.62109 112.092 7.32031 113.373 6.44531C114.326 5.80469 115.502 5.48438 116.9 5.48438C118.744 5.48438 120.17 5.96484 121.178 6.92578C122.068 7.77734 122.514 8.91797 122.514 10.3477ZM130.705 5.68359H132.92C132.92 5.68359 132.92 8.78906 132.92 15H130.705L125.83 8.85938V15H123.615V6.04688L125.83 5.44922L130.705 11.5898V5.68359ZM136.939 11.3438V13.0195H143.736L143.139 15H134.725V5.68359H143.736L143.139 7.66406H136.939V9.36328H142.717V11.3438H136.939ZM148.318 5.68359H154.295L153.697 7.66406H148.588C147.916 7.66406 147.404 8.03906 147.053 8.78906C146.834 9.27344 146.725 9.8125 146.725 10.4062C146.725 11.3281 146.959 12.0352 147.428 12.5273C147.748 12.8555 148.135 13.0195 148.588 13.0195H154.295L153.697 15H148.318C147.045 15 146.041 14.4688 145.307 13.4062C144.689 12.5234 144.381 11.4766 144.381 10.2656C144.381 8.98438 144.721 7.91406 145.4 7.05469C146.127 6.14844 147.1 5.69141 148.318 5.68359ZM155.268 6.04688L157.482 5.44922V9.59766H162.357V5.68359H164.572V15H162.357V11.5781H157.482V15H155.268V6.04688ZM169.236 13.7578L170.045 11.8594H172.646L170.83 7.99219L167.584 15H165.252L169.67 6.04688L171.896 5.44922L176.479 15H174.135L173.549 13.7578H169.236ZM177.146 5.68359H179.361V15H177.146V5.68359ZM188.256 5.68359H190.471C190.471 5.68359 190.471 8.78906 190.471 15H188.256L183.381 8.85938V15H181.166V6.04688L183.381 5.44922L188.256 11.5898V5.68359ZM191.725 13.0195H193.939V15.0117H191.725V13.0195ZM198.439 5.68359H204.416L203.818 7.66406H198.709C198.037 7.66406 197.525 8.03906 197.174 8.78906C196.955 9.27344 196.846 9.8125 196.846 10.4062C196.846 11.3281 197.08 12.0352 197.549 12.5273C197.869 12.8555 198.256 13.0195 198.709 13.0195H204.416L203.818 15H198.439C197.166 15 196.162 14.4688 195.428 13.4062C194.811 12.5234 194.502 11.4766 194.502 10.2656C194.502 8.98438 194.842 7.91406 195.521 7.05469C196.248 6.14844 197.221 5.69141 198.439 5.68359ZM207.041 10.3477C207.041 11.6836 207.529 12.5391 208.506 12.9141C208.967 13.0938 209.553 13.1836 210.264 13.1836C211.928 13.1836 212.932 12.6133 213.275 11.4727C213.369 11.1367 213.416 10.7617 213.416 10.3477C213.416 8.82422 212.76 7.91406 211.447 7.61719C211.096 7.53906 210.701 7.5 210.264 7.5C208.756 7.5 207.783 7.92969 207.346 8.78906C207.143 9.20312 207.041 9.72266 207.041 10.3477ZM215.76 10.3477C215.76 12.1758 215.053 13.5117 213.639 14.3555C212.693 14.918 211.529 15.1992 210.146 15.1992C208.451 15.1992 207.107 14.7461 206.115 13.8398C205.17 12.9727 204.697 11.8086 204.697 10.3477C204.697 8.62109 205.338 7.32031 206.619 6.44531C207.572 5.80469 208.748 5.48438 210.146 5.48438C211.99 5.48438 213.416 5.96484 214.424 6.92578C215.314 7.77734 215.76 8.91797 215.76 10.3477ZM226.236 5.68359H228.451V15H226.236V9.64453L223.4 14.6953H221.912L219.076 9.85547V15H216.861V6.04688L219.076 5.44922L222.674 12.0352L226.236 5.68359Z" fill="white"/>
<path d="M63.5273 12.6445L64.3887 14.9121C63.5098 15.1113 62.5078 15.2109 61.3828 15.2109C58.6992 15.2109 56.5664 14.5488 54.9844 13.2246C53.4492 11.9355 52.6816 10.2012 52.6816 8.02148C52.6816 5.52539 53.6602 3.63281 55.6172 2.34375C57.1641 1.32422 59.0859 0.814453 61.3828 0.814453C64.418 0.814453 66.7383 1.4707 68.3438 2.7832C69.6328 3.86133 70.2773 5.26758 70.2773 7.00195C70.2773 8.33789 69.7793 9.44531 68.7832 10.3242C67.916 11.0859 66.9082 11.4668 65.7598 11.4668H60.5918C59.1387 11.4668 58.0371 10.9629 57.2871 9.95508C56.8301 9.3457 56.6016 8.67773 56.6016 7.95117C56.6016 6.88477 57.0352 6.04688 57.9023 5.4375C58.6055 4.94531 59.502 4.69922 60.5918 4.69922H65.7598V9.2168C66.8145 9.2168 67.377 8.63086 67.4473 7.45898C67.459 7.36523 67.4648 7.26562 67.4648 7.16016C67.4648 5.15625 66.3516 3.91992 64.125 3.45117C63.375 3.29883 62.502 3.22266 61.5059 3.22266C58.7402 3.22266 56.9414 3.91992 56.1094 5.31445C55.6992 6.0293 55.4941 6.93164 55.4941 8.02148C55.4941 10.1895 56.332 11.6074 58.0078 12.2754C58.8984 12.627 60.0645 12.8027 61.5059 12.8027C62.2559 12.8027 62.9297 12.75 63.5273 12.6445ZM63.0879 9.09375V7.07227H60.627C60.0293 7.07227 59.6426 7.30078 59.4668 7.75781C59.4199 7.875 59.3965 7.99219 59.3965 8.10938C59.3965 8.55469 59.6191 8.85352 60.0645 9.00586C60.2402 9.06445 60.4277 9.09375 60.627 9.09375H63.0879Z" fill="#A92BA7"/>
<path d="M0 16.1836H52.3828V16.7812H0V16.1836ZM70.4707 16.1836H229.342V16.7812H70.4707V16.1836Z" fill="white"/>
<path d="M52.3828 16.7754H70.4707V17.6719H52.3828V16.7754Z" fill="#A92BA7"/>
<a href="mailto:hello@cyclonechain.com">
<rect fill="black" fill-opacity="0" y="14.042" width="229.342" height="19.916"/>
</a>
</svg>
