<svg width="48" height="48" viewBox="0 0 48 48" fill="none" xmlns="http://www.w3.org/2000/svg">
<path fill-rule="evenodd" clip-rule="evenodd" d="M44 14C44 10.6863 41.3137 8 38 8H10C6.68629 8 4 10.6863 4 14V34C4 37.3137 6.68629 40 10 40H38C41.3137 40 44 37.3137 44 34V14ZM13.0525 14.2241L11.4142 12.5858C10.6332 11.8047 9.36684 11.8047 8.58579 12.5858C7.80474 13.3668 7.80474 14.6332 8.58579 15.4142L10.2241 17.0525L15.9246 22.753L16.5149 23.3433L19.1709 25.9993L19.929 26.7574L20.4344 27.2628L21.1787 28.0071L21.8535 28.682L22.0513 28.8798L22.4729 29.3013L22.5858 29.4142C23.3668 30.1953 24.6332 30.1953 25.4142 29.4142L25.5271 29.3013L25.9487 28.8798L26.1465 28.682L26.8213 28.0071L27.5656 27.2628L28.071 26.7574L28.8291 25.9993L31.4851 23.3433L32.0754 22.753L38.8498 15.9786L39.4142 15.4142C40.1953 14.6332 40.1953 13.3668 39.4142 12.5858C38.6332 11.8047 37.3668 11.8047 36.5858 12.5858L34.9475 14.2241L29.247 19.9246L28.6567 20.5149L26.0007 23.1709L25.2426 23.929L24.7372 24.4344L24.092 25.0796L23.998 25.17L23.908 25.0796L23.2628 24.4344L22.7574 23.929L21.9993 23.1709L19.3433 20.5149L18.753 19.9246L13.0525 14.2241Z" fill="#E200E2"/>
</svg>
